# xmcd CD database file
#
# Track frame offsets:
#	150
#	18367
#	37425
#	77925
#	98707
#	124425
#	149925
#	174360
#	191805
#	221250
#	244069
#	267562
#
# Disc length: 3832 seconds
#
# Revision: 0
# Processed by: cddbd v1.5.2PL0 Copyright (c) Steve Scherf et al.
# Submitted via: CDex 1.51
#
DISCID=bc0ef60c
DTITLE=Artisti vari - NANS 194
DYEAR=2009
DGENRE=New Age
TTITLE0=Spencer Brewder - Ode for Patricia
TTITLE1=Caibedo Island - Venus
TTITLE2=Tito Rinesi - Suite della favorita
TTITLE3=Parish - The magic window
TTITLE4=Threefold - Equinox
TTITLE5=John Metcalfe - The shock of ricognition
TTITLE6=Luna Blanca - Villa azur
TTITLE7=Monica Shannon - My sheltering sky
TTITLE8=John Hartley - Contemplation
TTITLE9=Capitanata - Sea piano
TTITLE10=Ludvig and Stelar - Listen
TTITLE11=Spencer Brewer - Heartwood
EXTD=YEAR: 2009
EXTT0=
EXTT1=
EXTT2=
EXTT3=
EXTT4=
EXTT5=
EXTT6=
EXTT7=
EXTT8=
EXTT9=
EXTT10=
EXTT11=
PLAYORDER=
